<?xml version="1.0" encoding="UTF-8" standalone="no"?>
<svg
   xmlns:dc="http://purl.org/dc/elements/1.1/"
   xmlns:cc="http://creativecommons.org/ns#"
   xmlns:rdf="http://www.w3.org/1999/02/22-rdf-syntax-ns#"
   xmlns:svg="http://www.w3.org/2000/svg"
   xmlns="http://www.w3.org/2000/svg"
   xmlns:sodipodi="http://sodipodi.sourceforge.net/DTD/sodipodi-0.dtd"
   xmlns:inkscape="http://www.inkscape.org/namespaces/inkscape"
   width="4500px"
   height="4500px"
   viewBox="0 0 4500 4500"
   version="1.1"
   id="svg27"
   sodipodi:docname="drawing.svg"
   inkscape:version="0.92.4 5da689c313, 2019-01-14">
  <metadata
     id="metadata33">
    <rdf:RDF>
      <cc:Work
         rdf:about="">
        <dc:format>image/svg+xml</dc:format>
        <dc:type
           rdf:resource="http://purl.org/dc/dcmitype/StillImage" />
        <dc:title>MASTER-Centered-OneAPI_wht_logo_enlarged_blue_chipV2.eps-01</dc:title>
      </cc:Work>
    </rdf:RDF>
  </metadata>
  <defs
     id="defs31" />
  <sodipodi:namedview
     pagecolor="#ffffff"
     bordercolor="#666666"
     borderopacity="1"
     objecttolerance="10"
     gridtolerance="10"
     guidetolerance="10"
     inkscape:pageopacity="0"
     inkscape:pageshadow="2"
     inkscape:window-width="956"
     inkscape:window-height="1041"
     id="namedview29"
     showgrid="false"
     inkscape:zoom="0.10488889"
     inkscape:cx="3772.5762"
     inkscape:cy="2836.4566"
     inkscape:window-x="960"
     inkscape:window-y="18"
     inkscape:window-maximized="0"
     inkscape:current-layer="g20" />
  <!-- Generator: Sketch 61.2 (89653) - https://sketch.com -->
  <title
     id="title2">MASTER-Centered-OneAPI_wht_logo_enlarged_blue_chipV2.eps-01</title>
  <desc
     id="desc4">Created with Sketch.</desc>
  <g
     style="fill:#000000;fill-rule:evenodd;stroke:none;stroke-width:1"
     id="g22"
     transform="matrix(1.2781761,0,0,1.2781761,95.707159,13.712806)">
    <g
       id="g20"
       transform="translate(2062.5,12.5)"
       style="fill:#000000">
      <polygon
         style="fill:#000000;fill-rule:nonzero"
         points="141.19167,22.816667 141.19167,36.179167 112.7375,36.179167 112.7375,111.20417 97.0625,111.20417 97.0625,36.179167 68.695833,36.179167 68.695833,22.816667 "
         id="Path" />
      <polygon
         style="fill:#000000;fill-rule:nonzero"
         points="175.94583,22.816667 200.64583,92.020833 200.90833,92.020833 224.9875,22.816667 246.8,22.816667 246.8,111.20417 231.87083,111.20417 231.87083,42.970833 231.625,42.970833 206.79583,111.20417 193.87083,111.20417 169.05833,42.970833 168.77083,42.970833 168.77083,111.20417 153.87917,111.20417 153.87917,22.816667 "
         id="polygon18" />
    </g>
    <path
       style="fill:#000000;fill-rule:nonzero;stroke:none;stroke-width:1"
       inkscape:connector-curvature="0"
       id="Shape"
       d="m 340.92923,3405.6786 c 70.70416,0 132.95,-21.1 177.23333,-64.8083 49.8375,-49.2 66.5875,-119.4292 66.5875,-181.4583 0,-71.9 -20.69583,-135.1875 -66.5875,-180.525 -44.03333,-43.45 -106.06667,-64.8 -177.23333,-64.8 -71.24584,0 -133.25,21.35 -177.29167,64.8 -45.87917,45.3375 -66.58333,108.625 -66.58333,180.525 0,62.0291 16.75,132.2583 66.58333,181.4583 44.3,43.7083 106.52917,64.8083 177.29167,64.8083 m 80.1625,-137.9291 c -18.4375,24.05 -45.19167,36.0875 -80.1625,36.0875 -35.05834,0 -61.775,-12.0375 -80.22917,-36.0875 -18.42917,-24.0875 -27.67083,-60.1792 -27.67083,-108.3334 0,-47.5208 9.2375,-83.325 27.67083,-107.3791 18.45417,-24.0875 45.17083,-36.1417 80.22917,-36.1417 34.975,0 61.725,12.0542 80.1625,36.1417 18.41666,24.0541 27.67083,59.8583 27.67083,107.3791 0,48.15 -9.25417,84.2459 -27.67083,108.3334 m 656.66207,-310.1584 c 27.7833,29.0084 41.7083,72.5125 41.7083,130.5292 v 305.5083 H 986.27923 V 3097.387 c 0,-54.3125 -24.3833,-81.5 -73.1583,-81.5 -30.6375,0 -54.86254,10.8416 -72.69587,32.425 -17.79583,21.6083 -26.70417,51.5458 -26.70417,89.7958 v 255.5208 H 680.53756 v -467.525 h 75.95417 c 31.90416,0 47.84583,13.5917 47.84583,40.75 v 34.2542 c 12.5,-26.5083 32.20833,-47.6792 59.07083,-63.4 26.87914,-15.75 59.10414,-23.6167 96.60834,-23.6167 50.64567,0 89.87457,14.5084 117.73707,43.5 m 531.4666,14.8167 c -34.9958,-37.6708 -87.375,-58.3167 -152.4041,-58.3167 -59.6542,0 -122.0292,18.2917 -168.3292,62.0125 -47.1333,44.4917 -69.9,108.4125 -69.9,182.3875 0,68.4709 18.8667,130.7625 61.4375,175.9125 46.25,49.0417 112.1583,71.275 190.8708,71.275 72.5292,0 130.9875,-18.8125 175.4,-56.4833 l -45.025,-77.7458 c -31.5583,21.1875 -72.9958,32.3833 -116.2916,32.3833 -85.975,0 -127.4792,-38.5417 -136.9334,-115.7417 h 307.6209 c 5.5416,-20.6583 6.5541,-44 6.5541,-63.8583 -0.01,-58.7708 -16.2541,-112.2375 -53,-151.825 m -67.0291,138.8667 h -191.3292 c 3.0958,-31.5 14.0542,-56.1375 32.8083,-74.075 18.7667,-17.8834 43.15,-26.8417 73.15,-26.8417 26.2834,0 47.0542,7.7167 62.3792,23.15 15.3083,15.4083 23,37.3625 23,65.7292 v 12.0375 z m 1247.3583,-303.6667 c -38.7958,-35.1583 -94.125,-52.7542 -166.0083,-52.7542 h -223.2084 v 638.7792 h 88.1625 v -234.2167 h 135.0459 c 71.8833,0 127.2125,-17.8833 166.0083,-53.7041 38.7417,-35.7875 58.1208,-85.4792 58.1208,-149.0459 0,-64.175 -19.3791,-113.8583 -58.1208,-149.0583 m -65.6583,247.6375 c -23.7667,20.7208 -58.1709,31.0333 -103.1792,31.0333 h -132.2167 v -258.2791 h 132.2167 c 45.6458,0 80.2083,10.1625 103.6583,30.5333 23.4292,20.3875 35.1459,53.1042 35.1459,98.1333 0,45.0792 -11.875,77.925 -35.625,98.5792 m 209.1916,338.3875 v -73.1208 h 150.5417 v -492.5125 h -150.5417 v -73.1459 h 389.2334 v 73.1459 h -150.5292 v 492.5125 h 150.5292 v 73.1208 z M 2143.3621,3216.812 h -276.6792 l -65.6541,176.8208 h -85.35 l 247.6,-638.7792 h 90.9791 l 247.5917,638.7792 h -92.8417 z m -250.4417,-71.2834 h 224.175 L 2004.5246,2846.487 Z M 1504.5996,701.39648 c -86.5917,0 -156.7542,-69.2875 -156.7542,-154.7292 0,-85.4625 70.1625,-154.7375 156.7542,-154.7375 43.2833,0 82.4708,17.3208 110.8375,45.325 24.1292,23.8083 57.4375,38.55 94.2417,38.55 36.8208,0 70.1291,-14.7417 94.2541,-38.55 28.3667,-28.0042 67.55,-45.325 110.8375,-45.325 86.5667,0 156.75,69.275 156.75,154.7375 0,85.4417 -70.1833,154.7292 -156.75,154.7292 -43.2875,0 -82.4708,-17.3167 -110.8375,-45.3209 -24.125,-23.7916 -57.4333,-38.5458 -94.2541,-38.5458 -36.8042,0 -70.1125,14.7542 -94.2417,38.5458 -28.3667,28.0084 -67.5542,45.3209 -110.8375,45.3209 m 110.8333,643.24052 c 24.1292,-23.8167 57.4375,-38.5417 94.2417,-38.5417 36.8208,0 70.1292,14.7292 94.2542,38.5417 28.3666,27.9833 67.55,45.3208 110.8375,45.3208 86.5666,0 156.75,-69.2667 156.75,-154.7542 0,-85.4458 -70.1834,-154.7291 -156.75,-154.7291 -43.2875,0 -82.4709,17.3458 -110.8375,45.3333 -24.125,23.8042 -57.4334,38.5333 -94.2542,38.5333 -36.8042,0 -70.1125,-14.7291 -94.2417,-38.5333 -28.3666,-27.9917 -67.55,-45.3333 -110.8375,-45.3333 -86.5916,0 -156.7541,69.2791 -156.7541,154.7291 0,85.4917 70.1625,154.7542 156.7541,154.7542 43.2875,0 82.475,-17.3375 110.8375,-45.3208 m 0,344.2833 c 24.1292,-23.8167 57.4375,-38.5333 94.2417,-38.5333 36.8208,0 70.1292,14.7166 94.2542,38.5333 28.3666,27.9833 67.55,45.3 110.8375,45.3 86.5666,0 156.75,-69.2542 156.75,-154.7208 0,-85.4584 -70.1834,-154.7292 -156.75,-154.7292 -43.2875,0 -82.4709,17.325 -110.8375,45.3083 -24.125,23.8084 -57.4334,38.5375 -94.2542,38.5375 -36.8042,0 -70.1125,-14.7291 -94.2417,-38.5375 -28.3666,-27.9833 -67.55,-45.3083 -110.8375,-45.3083 -86.5916,0 -156.7541,69.2708 -156.7541,154.7292 0,85.4666 70.1625,154.7208 156.7541,154.7208 43.2875,0 82.475,-17.3167 110.8375,-45.3 m 0,344.2708 c 24.1292,-23.8125 57.4375,-38.5166 94.2417,-38.5166 36.8208,0 70.1292,14.7041 94.2542,38.5166 28.3666,27.9792 67.55,45.325 110.8375,45.325 86.5666,0 156.75,-69.2708 156.75,-154.7333 0,-85.475 -70.1834,-154.7292 -156.75,-154.7292 -43.2875,0 -82.4709,17.3084 -110.8375,45.2959 -24.125,23.8125 -57.4334,38.5416 -94.2542,38.5416 -36.8042,0 -70.1125,-14.7291 -94.2417,-38.5416 -28.3666,-27.9875 -67.55,-45.2959 -110.8375,-45.2959 -86.5916,0 -156.7541,69.2542 -156.7541,154.7292 0,85.4625 70.1625,154.7333 156.7541,154.7333 43.2875,0 82.475,-17.3458 110.8375,-45.325 m 0,344.2792 c 24.1292,-23.8125 57.4375,-38.5292 94.2417,-38.5292 36.8208,0 70.1292,14.7167 94.2542,38.5292 28.3666,28.025 67.55,45.3208 110.8375,45.3208 43.2833,0 82.4541,-17.2958 110.85,-45.3208 24.0916,-23.8125 57.4416,-38.5292 94.2416,-38.5292 36.7917,0 70.1125,14.7167 94.2459,38.5292 28.3625,28.025 67.55,45.3208 110.8333,45.3208 86.5708,0 156.775,-69.275 156.775,-154.7375 0,-85.4541 -70.2042,-154.7291 -156.775,-154.7291 -43.2833,0 -82.4708,17.3166 -110.8333,45.3333 -24.1334,23.775 -57.4542,38.5375 -94.2459,38.5375 -36.8,0 -70.15,-14.7625 -94.2416,-38.5375 -28.3959,-28.0167 -67.5709,-45.3333 -110.85,-45.3333 -43.2875,0 -82.4709,17.3166 -110.8375,45.3333 -24.125,23.775 -57.4334,38.5375 -94.2542,38.5375 -36.8042,0 -70.1125,-14.7625 -94.2417,-38.5375 -28.3666,-28.0167 -67.55,-45.3333 -110.8375,-45.3333 -43.3125,0 -82.4958,17.3166 -110.8583,45.3333 -24.1083,23.775 -57.4125,38.5375 -94.2125,38.5375 -36.825,0 -70.1542,-14.7625 -94.2667,-38.5375 -28.3416,-28.0167 -67.5458,-45.3333 -110.8291,-45.3333 -86.5622,0 -156.77877,69.275 -156.77877,154.7291 0,85.4625 70.21657,154.7375 156.77877,154.7375 43.2833,0 82.4875,-17.2958 110.8291,-45.3208 24.1125,-23.8125 57.4417,-38.5292 94.2667,-38.5292 36.8042,0 70.1042,14.7167 94.2125,38.5292 28.3625,28.025 67.5458,45.3208 110.8583,45.3208 43.2875,0 82.475,-17.3 110.8375,-45.3208 M 1803.9288,781.53398 c -24.125,23.8125 -57.4334,38.525 -94.2542,38.525 -36.8042,0 -70.1125,-14.7084 -94.2417,-38.525 -28.3666,-27.9834 -67.55,-45.3084 -110.8375,-45.3084 -43.3125,0 -82.4958,17.3209 -110.8583,45.3084 -24.1083,23.8125 -57.4125,38.525 -94.2125,38.525 -36.825,0 -70.1542,-14.7084 -94.2667,-38.525 -28.3416,-27.9834 -67.5458,-45.3084 -110.8291,-45.3084 -86.5622,0 -156.77877,69.2542 -156.77877,154.7084 0,85.46663 70.21657,154.73252 156.77877,154.73252 43.2833,0 82.4875,-17.3162 110.8291,-45.3075 24.1125,-23.81249 57.4417,-38.52922 94.2667,-38.52922 36.8042,0 70.1042,14.71673 94.2125,38.52922 28.3625,27.9871 67.5458,45.3075 110.8583,45.3075 43.2834,0 82.4709,-17.3162 110.8375,-45.3075 24.1292,-23.81249 57.4375,-38.52922 94.2417,-38.52922 36.8208,0 70.1292,14.71673 94.2542,38.52922 28.3666,27.9871 67.55,45.3075 110.8375,45.3075 86.5666,0 156.75,-69.26999 156.75,-154.73252 0,-85.4542 -70.1834,-154.7084 -156.75,-154.7084 -43.2875,0 -82.4709,17.325 -110.8375,45.3084 m 267.5875,-579.15 c 0,85.475 -70.1834,154.7541 -156.75,154.7541 -86.5875,0 -156.75,-69.2791 -156.75,-154.7541 0,-85.4584 70.1625,-154.74591 156.75,-154.74591 86.5666,0 156.75,69.29171 156.75,154.74591" />
  </g>
</svg>
