<?xml version="1.0" encoding="UTF-8" standalone="no"?>
<!-- Created with Inkscape (http://www.inkscape.org/) -->

<svg
   xmlns:dc="http://purl.org/dc/elements/1.1/"
   xmlns:cc="http://creativecommons.org/ns#"
   xmlns:rdf="http://www.w3.org/1999/02/22-rdf-syntax-ns#"
   xmlns:svg="http://www.w3.org/2000/svg"
   xmlns="http://www.w3.org/2000/svg"
   xmlns:sodipodi="http://sodipodi.sourceforge.net/DTD/sodipodi-0.dtd"
   xmlns:inkscape="http://www.inkscape.org/namespaces/inkscape"
   width="41.909893mm"
   height="44.205452mm"
   viewBox="0 0 41.909893 44.205452"
   version="1.1"
   id="svg18386"
   inkscape:version="0.92.4 5da689c313, 2019-01-14"
   sodipodi:docname="drawing.svg">
  <defs
     id="defs18380">
    <clipPath
       clipPathUnits="userSpaceOnUse"
       id="clipPath18290">
      <path
         d="m 691.657,98.933 h 118.8 V 224.24 h -118.8 z"
         id="path18288"
         inkscape:connector-curvature="0" />
    </clipPath>
  </defs>
  <sodipodi:namedview
     id="base"
     pagecolor="#ffffff"
     bordercolor="#666666"
     borderopacity="1.0"
     inkscape:pageopacity="0.0"
     inkscape:pageshadow="2"
     inkscape:zoom="0.49497475"
     inkscape:cx="92.660897"
     inkscape:cy="-406.20769"
     inkscape:document-units="mm"
     inkscape:current-layer="layer1"
     showgrid="false"
     fit-margin-top="0"
     fit-margin-left="0"
     fit-margin-right="0"
     fit-margin-bottom="0"
     inkscape:window-width="956"
     inkscape:window-height="1161"
     inkscape:window-x="960"
     inkscape:window-y="18"
     inkscape:window-maximized="0" />
  <metadata
     id="metadata18383">
    <rdf:RDF>
      <cc:Work
         rdf:about="">
        <dc:format>image/svg+xml</dc:format>
        <dc:type
           rdf:resource="http://purl.org/dc/dcmitype/StillImage" />
        <dc:title></dc:title>
      </cc:Work>
    </rdf:RDF>
  </metadata>
  <g
     inkscape:label="Layer 1"
     inkscape:groupmode="layer"
     id="layer1"
     transform="translate(-0.7632899,-0.64115786)">
    <g
       transform="matrix(0.35277777,0,0,-0.35277777,-243.23803,79.748045)"
       id="g18284">
      <g
         id="g18286"
         clip-path="url(#clipPath18290)">
        <g
           id="g18292"
           transform="translate(764.3853,218.4662)">
          <path
             d="m 0,0 c 0,-3.189 -2.585,-5.774 -5.774,-5.774 -3.189,0 -5.774,2.585 -5.774,5.774 0,3.189 2.585,5.774 5.774,5.774 C -2.585,5.774 0,3.189 0,0 m -9.856,-21.611 c -0.889,-0.888 -2.116,-1.438 -3.472,-1.438 -1.356,0 -2.583,0.55 -3.472,1.438 -1.044,1.045 -2.488,1.691 -4.082,1.691 -1.595,0 -3.038,-0.646 -4.083,-1.691 -0.889,-0.888 -2.115,-1.438 -3.471,-1.438 -1.356,0 -2.583,0.55 -3.472,1.438 -1.044,1.045 -2.488,1.691 -4.082,1.691 -3.19,0 -5.775,-2.585 -5.775,-5.774 0,-3.189 2.585,-5.773 5.775,-5.773 1.594,0 3.038,0.646 4.082,1.69 0.889,0.889 2.116,1.438 3.472,1.438 1.356,0 2.582,-0.549 3.471,-1.438 1.045,-1.044 2.488,-1.69 4.083,-1.69 1.594,0 3.038,0.646 4.082,1.69 0.889,0.889 2.116,1.438 3.472,1.438 1.356,0 2.583,-0.549 3.472,-1.438 1.044,-1.044 2.488,-1.69 4.082,-1.69 3.189,0 5.774,2.584 5.774,5.773 0,3.189 -2.585,5.774 -5.774,5.774 -1.594,0 -3.038,-0.646 -4.082,-1.691 M -16.8,-81.164 c 0.889,0.888 2.116,1.437 3.472,1.437 1.356,0 2.583,-0.549 3.472,-1.437 1.044,-1.046 2.488,-1.692 4.082,-1.692 1.594,0 3.038,0.646 4.083,1.692 0.888,0.888 2.116,1.437 3.472,1.437 1.355,0 2.582,-0.549 3.471,-1.437 1.045,-1.046 2.488,-1.692 4.082,-1.692 3.189,0 5.775,2.585 5.775,5.775 0,3.189 -2.586,5.773 -5.775,5.773 -1.594,0 -3.037,-0.646 -4.082,-1.691 -0.889,-0.888 -2.116,-1.438 -3.471,-1.438 -1.356,0 -2.584,0.55 -3.472,1.438 -1.045,1.045 -2.489,1.691 -4.083,1.691 -1.594,0 -3.038,-0.646 -4.082,-1.691 -0.889,-0.888 -2.116,-1.438 -3.472,-1.438 -1.356,0 -2.583,0.55 -3.472,1.438 -1.044,1.045 -2.488,1.691 -4.082,1.691 -1.595,0 -3.038,-0.646 -4.083,-1.691 -0.889,-0.888 -2.115,-1.438 -3.471,-1.438 -1.356,0 -2.583,0.55 -3.472,1.438 -1.044,1.045 -2.488,1.691 -4.082,1.691 -3.19,0 -5.775,-2.584 -5.775,-5.773 0,-3.19 2.585,-5.775 5.775,-5.775 1.594,0 3.038,0.646 4.082,1.692 0.889,0.888 2.116,1.437 3.472,1.437 1.356,0 2.582,-0.549 3.471,-1.437 1.045,-1.046 2.488,-1.692 4.083,-1.692 1.594,0 3.038,0.646 4.082,1.692 m 0,12.847 c 0.889,0.888 2.116,1.437 3.472,1.437 1.356,0 2.583,-0.549 3.472,-1.437 1.044,-1.045 2.488,-1.692 4.082,-1.692 3.189,0 5.774,2.585 5.774,5.775 0,3.188 -2.585,5.773 -5.774,5.773 -1.594,0 -3.038,-0.646 -4.082,-1.691 -0.889,-0.888 -2.116,-1.438 -3.472,-1.438 -1.356,0 -2.583,0.55 -3.472,1.438 -1.044,1.045 -2.488,1.691 -4.082,1.691 -3.189,0 -5.774,-2.585 -5.774,-5.773 0,-3.19 2.585,-5.775 5.774,-5.775 1.594,0 3.038,0.647 4.082,1.692 m 0,12.847 c 0.889,0.888 2.116,1.437 3.472,1.437 1.356,0 2.583,-0.549 3.472,-1.437 1.044,-1.045 2.488,-1.691 4.082,-1.691 3.189,0 5.774,2.584 5.774,5.773 0,3.189 -2.585,5.774 -5.774,5.774 -1.594,0 -3.038,-0.646 -4.082,-1.691 -0.889,-0.888 -2.116,-1.438 -3.472,-1.438 -1.356,0 -2.583,0.55 -3.472,1.438 -1.044,1.045 -2.488,1.691 -4.082,1.691 -3.189,0 -5.774,-2.585 -5.774,-5.774 0,-3.189 2.585,-5.773 5.774,-5.773 1.594,0 3.038,0.646 4.082,1.691 m 0,12.847 c 0.889,0.888 2.116,1.438 3.472,1.438 1.356,0 2.583,-0.55 3.472,-1.438 1.044,-1.045 2.488,-1.692 4.082,-1.692 3.189,0 5.774,2.585 5.774,5.774 0,3.189 -2.585,5.775 -5.774,5.775 -1.594,0 -3.038,-0.647 -4.082,-1.692 -0.889,-0.888 -2.116,-1.438 -3.472,-1.438 -1.356,0 -2.583,0.55 -3.472,1.438 -1.044,1.045 -2.488,1.692 -4.082,1.692 -3.189,0 -5.774,-2.586 -5.774,-5.775 0,-3.189 2.585,-5.774 5.774,-5.774 1.594,0 3.038,0.647 4.082,1.692 m -4.082,24.002 c -3.189,0 -5.774,2.586 -5.774,5.774 0,3.189 2.585,5.774 5.774,5.774 1.594,0 3.038,-0.646 4.082,-1.691 0.889,-0.889 2.116,-1.438 3.472,-1.438 1.356,0 2.583,0.549 3.472,1.438 1.044,1.045 2.488,1.691 4.082,1.691 3.189,0 5.774,-2.585 5.774,-5.774 0,-3.188 -2.585,-5.774 -5.774,-5.774 -1.594,0 -3.038,0.647 -4.082,1.691 -0.889,0.889 -2.116,1.438 -3.472,1.438 -1.356,0 -2.583,-0.549 -3.472,-1.438 -1.044,-1.044 -2.488,-1.691 -4.082,-1.691 m 14.304,-91.204 h 8.256 l -4.145,11.158 z m 9.224,-2.66 H -7.545 l -2.418,-6.598 h -3.144 l 9.12,23.836 h 3.351 l 9.12,-23.836 h -3.42 z m 29.089,-6.598 v 2.729 h 5.545 v 18.378 h -5.545 v 2.729 h 14.337 v -2.729 h -5.545 v -18.378 h 5.545 v -2.729 z m -7.705,12.626 c -0.876,-0.772 -2.142,-1.157 -3.8,-1.157 h -4.871 v 9.638 h 4.871 c 1.681,0 2.953,-0.379 3.817,-1.14 0.863,-0.76 1.295,-1.981 1.295,-3.662 0,-1.681 -0.438,-2.907 -1.312,-3.679 m 2.418,9.242 c -1.429,1.312 -3.467,1.968 -6.115,1.968 h -8.221 v -23.836 h 3.247 v 8.74 h 4.974 c 2.648,0 4.686,0.667 6.115,2.003 1.427,1.336 2.141,3.19 2.141,5.562 0,2.395 -0.714,4.249 -2.141,5.563 m -45.946,-11.332 h -7.047 c 0.115,1.175 0.518,2.096 1.209,2.764 0.691,0.667 1.589,1.002 2.694,1.002 0.968,0 1.733,-0.288 2.298,-0.864 0.564,-0.575 0.846,-1.394 0.846,-2.453 z m 2.47,5.182 c -1.29,1.406 -3.219,2.176 -5.614,2.176 -2.197,0 -4.495,-0.683 -6.201,-2.314 -1.735,-1.66 -2.574,-4.045 -2.574,-6.805 0,-2.555 0.695,-4.88 2.263,-6.565 1.703,-1.83 4.131,-2.66 7.03,-2.66 2.672,0 4.825,0.703 6.461,2.108 l -1.659,2.901 c -1.162,-0.791 -2.689,-1.208 -4.283,-1.208 -3.167,0 -4.695,1.438 -5.044,4.318 h 11.331 c 0.204,0.772 0.242,1.642 0.242,2.383 0,2.194 -0.598,4.189 -1.952,5.666 m -19.577,0.553 c 1.024,-1.083 1.537,-2.706 1.537,-4.871 v -11.4 h -4.906 v 11.054 c 0,2.027 -0.898,3.041 -2.694,3.041 -1.129,0 -2.021,-0.404 -2.677,-1.21 -0.657,-0.806 -0.985,-1.923 -0.985,-3.351 v -9.534 h -4.906 v 17.446 h 2.799 c 1.174,0 1.762,-0.507 1.762,-1.52 v -1.279 c 0.46,0.99 1.186,1.779 2.176,2.366 0.99,0.588 2.176,0.881 3.558,0.881 1.866,0 3.31,-0.541 4.336,-1.623 m -24.187,-11.573 c -0.68,-0.898 -1.664,-1.347 -2.953,-1.347 -1.291,0 -2.275,0.449 -2.955,1.347 -0.679,0.898 -1.019,2.245 -1.019,4.042 0,1.773 0.34,3.109 1.019,4.007 0.68,0.898 1.664,1.348 2.955,1.348 1.289,0 2.273,-0.45 2.953,-1.348 0.679,-0.898 1.019,-2.234 1.019,-4.007 0,-1.797 -0.34,-3.144 -1.019,-4.042 m -2.953,-5.148 c 2.605,0 4.897,0.787 6.528,2.419 1.836,1.836 2.453,4.455 2.453,6.771 0,2.683 -0.762,5.045 -2.453,6.736 -1.621,1.621 -3.906,2.418 -6.528,2.418 -2.624,0 -4.908,-0.797 -6.53,-2.418 -1.691,-1.691 -2.453,-4.053 -2.453,-6.736 0,-2.316 0.617,-4.935 2.453,-6.771 1.632,-1.632 3.924,-2.419 6.53,-2.419"
             style="fill:#000000;fill-opacity:1;fill-rule:nonzero;stroke:none"
             id="path18294"
             inkscape:connector-curvature="0" />
        </g>
        <g
           id="g18296"
           transform="translate(767.8858,223.13)">
          <path
             d="M 0,0 H 2.67 V -0.499 H 1.622 v -2.8 H 1.044 v 2.8 H 0 Z"
             style="fill:#000000;fill-opacity:1;fill-rule:nonzero;stroke:none"
             id="path18298"
             inkscape:connector-curvature="0" />
        </g>
        <g
           id="g18300"
           transform="translate(771.0228,223.13)">
          <path
             d="m 0,0 h 0.813 l 0.91,-2.583 H 1.732 L 2.62,0 H 3.423 V -3.299 H 2.874 v 2.546 H 2.864 L 1.95,-3.299 H 1.474 L 0.559,-0.753 H 0.55 V -3.299 H 0 Z"
             style="fill:#000000;fill-opacity:1;fill-rule:nonzero;stroke:none"
             id="path18302"
             inkscape:connector-curvature="0" />
        </g>
      </g>
    </g>
  </g>
</svg>
