<?xml version="1.0" encoding="UTF-8" standalone="no"?>
<svg
   xmlns:dc="http://purl.org/dc/elements/1.1/"
   xmlns:cc="http://creativecommons.org/ns#"
   xmlns:rdf="http://www.w3.org/1999/02/22-rdf-syntax-ns#"
   xmlns:svg="http://www.w3.org/2000/svg"
   xmlns="http://www.w3.org/2000/svg"
   xmlns:sodipodi="http://sodipodi.sourceforge.net/DTD/sodipodi-0.dtd"
   xmlns:inkscape="http://www.inkscape.org/namespaces/inkscape"
   width="512"
   height="512"
   viewBox="0 0 512 512"
   fill="none"
   version="1.1"
   id="svg18"
   sodipodi:docname="oneapi-logo.svg"
   inkscape:version="1.0.2 (e86c870879, 2021-01-15)">
  <metadata
     id="metadata24">
    <rdf:RDF>
      <cc:Work
         rdf:about="">
        <dc:format>image/svg+xml</dc:format>
        <dc:type
           rdf:resource="http://purl.org/dc/dcmitype/StillImage" />
        <dc:title></dc:title>
      </cc:Work>
    </rdf:RDF>
  </metadata>
  <defs
     id="defs22" />
  <sodipodi:namedview
     pagecolor="#ffffff"
     bordercolor="#666666"
     borderopacity="1"
     objecttolerance="10"
     gridtolerance="10"
     guidetolerance="10"
     inkscape:pageopacity="0"
     inkscape:pageshadow="2"
     inkscape:window-width="1916"
     inkscape:window-height="1161"
     id="namedview20"
     showgrid="false"
     inkscape:zoom="1.4355469"
     inkscape:cx="209"
     inkscape:cy="187.38819"
     inkscape:window-x="0"
     inkscape:window-y="18"
     inkscape:window-maximized="0"
     inkscape:current-layer="svg18" />
  <path
     d="m 42.508472,400.54377 c -11.096233,0 -20.762473,3.46967 -27.624446,10.52288 -7.1530992,7.36267 -10.376543,17.63674 -10.376543,29.31328 0,10.07478 2.6103829,21.47529 10.376543,29.46431 6.903133,7.09901 16.601746,10.52288 27.624446,10.52288 11.021617,0 20.72011,-3.42387 27.623243,-10.52288 7.767364,-7.98902 10.376543,-19.38953 10.376543,-29.46431 0,-11.67654 -3.222962,-21.95061 -10.376543,-29.31328 -6.861973,-7.05321 -16.527491,-10.52288 -27.623243,-10.52288 z m 12.496381,57.42463 c -2.875513,3.90786 -7.041054,5.86241 -12.496381,5.86241 -5.457614,0 -9.623756,-1.95455 -12.496381,-5.86241 -2.875152,-3.9091 -4.311524,-9.77151 -4.311524,-17.58847 0,-7.71545 1.436613,-13.52959 4.311524,-17.43745 2.872625,-3.90786 7.038888,-5.86364 12.496381,-5.86364 5.455327,0 9.620868,1.95578 12.496381,5.86364 2.872143,3.90786 4.311525,9.722 4.311525,17.43745 0,7.81696 -1.439382,13.67937 -4.311525,17.58847 z"
     fill="#ffffff"
     id="path2"
     style="stroke-width:1.22055" />
  <path
     d="m 138.98974,400.54377 c -5.84658,0 -10.86516,1.27745 -15.05333,3.83359 -4.19057,2.5549 -7.26069,5.98867 -9.20795,10.29759 v -5.56285 c 0,-4.40919 -2.48401,-6.61378 -7.45445,-6.61378 H 95.435219 v 75.91425 h 20.754291 v -41.48992 c 0,-6.21272 1.38883,-11.07248 4.1665,-14.58176 2.77647,-3.5068 6.55063,-5.26205 11.3261,-5.26205 7.60008,0 11.40072,4.41166 11.40072,13.23003 v 48.1037 h 20.75309 v -49.60768 c 0,-9.41872 -2.16991,-16.48431 -6.5037,-21.19553 -4.33619,-4.70998 -10.44995,-7.06559 -18.34248,-7.06559 z"
     fill="#ffffff"
     id="path4"
     style="stroke-width:1.22055" />
  <path
     d="m 507.11752,386.56361 v -11.87584 h -60.655 v 11.87584 h 23.45854 v 79.97312 h -23.45854 v 11.8746 h 60.655 v -11.8746 h -23.45734 v -79.97312 z"
     fill="#ffffff"
     id="path6"
     style="stroke-width:1.22055" />
  <path
     d="m 295.3311,374.68777 -38.58409,103.72356 h 13.29864 l 10.23092,-28.7117 h 43.11644 l 10.23092,28.7117 h 14.46843 L 309.50828,374.68777 Z m -10.96265,63.43682 17.39413,-48.55551 17.53855,48.55551 z"
     fill="#ffffff"
     id="path8"
     style="stroke-width:1.22055" />
  <path
     d="m 216.40823,400.54377 c -9.2946,0 -19.01644,2.97082 -26.23501,10.0723 -7.34373,7.2228 -10.88802,17.60209 -10.88802,29.61409 0,11.11456 2.93893,21.23143 9.5726,28.56068 7.20413,7.9655 17.47717,11.57628 29.7432,11.57628 11.30204,0 20.4113,-3.05623 27.3314,-9.16992 l -7.01638,-12.62721 c -4.91869,3.4412 -11.37545,5.26082 -18.12345,5.26082 -13.39611,0 -19.8625,-6.25852 -21.33798,-18.79165 h 47.93885 c 0.86171,-3.35578 1.02298,-7.14481 1.02298,-10.37186 0,-9.54374 -2.53096,-18.22595 -8.25719,-24.65282 -5.45665,-6.11864 -13.61756,-9.47071 -23.751,-9.47071 z m 13.29984,32.01921 h -29.81541 c 0.48621,-5.11105 2.19277,-9.11793 5.11486,-12.02562 2.92329,-2.90521 6.72393,-4.35967 11.40071,-4.35967 4.09189,0 7.3305,1.25393 9.71944,3.75808 2.38653,2.50663 3.5804,6.06418 3.5804,10.67266 z"
     fill="#ffffff"
     id="path10"
     style="stroke-width:1.22055" />
  <path
     d="m 424.09194,383.2561 c -6.04155,-5.71263 -14.66581,-8.56833 -25.86915,-8.56833 h -34.78465 v 103.72356 h 13.73911 v -38.0314 h 21.04554 c 11.20334,0 19.8276,-2.90521 25.86915,-8.71934 6.04034,-5.81166 9.06232,-13.87866 9.06232,-24.20225 0,-10.42137 -3.02198,-18.48961 -9.06232,-24.20224 z m -10.22972,40.21247 c -3.70436,3.35826 -9.06233,5.03553 -16.0775,5.03553 h -20.60867 v -41.94049 h 20.60867 c 7.11145,0 12.4959,1.65251 16.14971,4.96002 3.65381,3.30751 5.48192,8.62032 5.48192,15.93471 0,7.31688 -1.85218,12.6532 -5.55413,16.01023 z"
     fill="#ffffff"
     id="path12"
     style="stroke-width:1.22055" />
  <path
     d="m 250.33479,367.92297 v -58.40624 h -56.78456 v 58.40624 z"
     fill="#00c7fd"
     id="path14"
     style="stroke-width:1.22055" />
  <path
     d="m 318.07356,30.810884 h -56.44878 c -1.61027,3.310603 -3.52985,6.509305 -5.73586,9.604648 -1.68249,2.360685 -3.52624,4.663438 -5.55413,6.89972 -3.76935,4.157533 -8.13082,8.101167 -13.09524,11.828427 -1.36356,1.022579 -2.77406,1.98698 -4.21585,2.915856 -1.98577,1.280545 -4.03773,2.482488 -6.16792,3.589116 -2.94134,1.528733 -6.02831,2.881692 -9.24766,4.073732 -0.38271,0.142351 -0.7582,0.290892 -1.14573,0.428292 -6.25818,2.216972 -13.02905,3.816261 -20.31862,4.785489 v 44.125276 h 54.19102 v 190.45529 h 67.73877 z"
     fill="#ffffff"
     id="path16"
     style="stroke-width:1.22055" />
</svg>
